#!OML:ASF H:\BreakDance\Project 1\Capture day 1\Session 1\Male.ASF
:FULLY-SPECIFIED
:DEGREES
2076
root -12.0144 9.46958 2.10022 -107.339 39.1373 257.074
lowerback 20.0498 6.38949 8.74038
upperback 5.37684 10.8839 -12.7016
thorax -1.26267 6.36611 -21.2109
lowerneck -2.30061 10.0535 12.7152
upperneck -17.1454 13.2272 -9.10592
head -3.30615 6.66065 -4.98982
rclavicle 4.77083e-014 5.24792e-014
rhumerus 78.8897 -37.7431 -27.2265
rradius 56.3611
rwrist -18.3788
rhand -21.1671 -372.684
rfingers 7.12502
rthumb 5.21305 -42.6002
lclavicle 4.77083e-014 5.24792e-014
lhumerus 15.8506 18.8503 43.1582
lradius 21.6207
lwrist 29.612
lhand -42.5201 701.38
lfingers 7.12502
lthumb -15.3962 370.787
rfemur -38.3707 -55.2284 18.5583
rtibia 88.4554
rfoot 19.3334 16.3589
rtoes 17.059
lfemur 256.88 12.1405 350.087
ltibia 128.505
lfoot 1.57812 -17.9157
ltoes -7.34062
2077
root -11.8752 9.63941 2.08198 -108.812 36.7605 255.343
lowerback 19.7706 6.17692 8.52238
upperback 5.36727 10.526 -12.4875
thorax -1.35184 6.14363 -20.72
lowerneck -2.69837 9.81546 12.6882
upperneck -17.3932 12.9854 -8.50415
head -3.3997 6.52818 -4.80857
rclavicle -7.95139e-014 -8.42847e-014
rhumerus 81.6574 -36.3282 -27.6139
rradius 59.5994
rwrist -20.5805
rhand -21.5343 -372.977
rfingers 7.12502
rthumb 4.85848 -42.9017
lclavicle -7.95139e-014 -8.42847e-014
lhumerus 16.7736 18.9769 42.7026
lradius 21.1372
lwrist 28.3257
lhand -42.7287 700.521
lfingers 7.12502
lthumb -15.5971 369.912
rfemur -35.9471 -55.8012 19.1
rtibia 88.1438
rfoot 21.5442 16.8787
rtoes 18.2975
lfemur 256.973 10.8665 348.506
ltibia 125.163
lfoot 0.369018 -14.7647
ltoes -7.36348
2078
root -11.7303 9.81236 2.05938 -110.117 34.3651 253.681
lowerback 19.5755 6.03751 8.35752
upperback 5.26921 10.2801 -12.3762
thorax -1.50221 5.97618 -20.4304
lowerneck -3.05561 9.44011 12.8534
upperneck -17.5494 12.5962 -7.77795
head -3.48503 6.31071 -4.62074
rclavicle -5.40694e-014 5.40694e-014
rhumerus 83.7445 -34.8637 -27.4925
rradius 62.6965
rwrist -22.6156
rhand -21.7349 -373.216
rfingers 7.12502
rthumb 4.66475 -43.1448
lclavicle -5.40694e-014 5.40694e-014
lhumerus 17.973 18.7738 42.2847
lradius 20.7608
lwrist 27.2221
lhand -42.7813 699.738
lfingers 7.12502
lthumb -15.6477 369.126
rfemur -33.6971 -56.1185 19.7997
rtibia 87.5801
rfoot 24.1141 17.3934
rtoes 20.208
lfemur 257.007 10.0252 346.688
ltibia 121.652
lfoot -0.605626 -12.3869
ltoes -6.40038
2079
root -11.5805 9.98695 2.03087 -111.29 31.9386 252.043
lowerback 19.4168 5.96014 8.18526
upperback 5.10486 10.1115 -12.2942
thorax -1.70514 5.84065 -20.1952
lowerneck -3.34511 8.95741 13.101
upperneck -17.6023 12.0869 -6.96835
head -3.56141 6.02729 -4.42112
rclavicle -1.11319e-013 -4.6118e-014
rhumerus 85.3531 -33.269 -26.9534
rradius 65.6111
rwrist -24.3611
rhand -21.7432 -373.18
rfingers 7.12502
rthumb 4.6567 -43.1083
lclavicle -1.11319e-013 -4.6118e-014
lhumerus 19.4156 18.4605 42.0635
lradius 20.4133
lwrist 26.1166
lhand -42.6783 699.023
lfingers 7.12502
lthumb -15.5485 368.418
rfemur -31.6772 -56.2467 20.7018
rtibia 86.846
rfoot 26.9933 17.8366
rtoes 22.8929
lfemur 257.018 9.48693 344.655
ltibia 118
lfoot -1.39167 -10.6081
ltoes -5.22891
2080
root -11.4281 10.1639 1.9933 -112.38 29.4597 250.374
lowerback 19.2097 5.92918 7.90951
upperback 4.93906 9.97719 -12.1334
thorax -1.89817 5.71739 -19.7932
lowerneck -3.60004 8.41701 13.272
upperneck -17.5388 11.5003 -6.12893
head -3.61723 5.70781 -4.19698
rclavicle -3.18055e-014 4.29375e-014
rhumerus 86.733 -31.4827 -26.0627
rradius 68.2887
rwrist -25.6653
rhand -21.5177 -372.757
rfingers 7.12502
rthumb 4.87448 -42.6806
lclavicle -3.18055e-014 4.29375e-014
lhumerus 21.0723 18.323 42.2619
lradius 19.9864
lwrist 24.7897
lhand -42.4071 698.311
lfingers 7.12502
lthumb -15.2873 367.726
rfemur -29.9059 -56.2773 21.8269
rtibia 86.0193
rfoot 30.0835 18.1165
rtoes 26.4035
lfemur 257.054 9.12388 342.458
ltibia 114.226
lfoot -1.9773 -9.24472
ltoes -4.16676
2081
root -11.2755 10.3429 1.9453 -113.421 26.906 248.651
lowerback 18.9818 5.91409 7.55314
upperback 4.79255 9.84478 -11.88
thorax -2.08349 5.59247 -19.2235
lowerneck -3.85802 7.83313 13.3682
upperneck -17.3625 10.8397 -5.30774
head -3.64133 5.3561 -3.96051
rclavicle 4.45278e-014 6.67916e-014
rhumerus 87.9594 -29.4783 -24.9018
rradius 70.7004
rwrist -26.4512
rhand -21.0476 -371.933
rfingers 7.12502
rthumb 5.32836 -41.8458
lclavicle 4.45278e-014 6.67916e-014
lhumerus 22.9412 18.397 42.9166
lradius 19.4399
lwrist 23.1778
lhand -41.9722 697.577
lfingers 7.12502
lthumb -14.8684 367.023
rfemur -28.3551 -56.2497 23.127
rtibia 85.2143
rfoot 33.0672 18.0944
rtoes 30.0156
lfemur 257.192 8.83161 340.161
ltibia 110.328
lfoot -2.3763 -8.10863
ltoes -1.63651
2082
root -11.1251 10.5228 1.88582 -114.44 24.2425 246.863
lowerback 19.0132 5.86556 7.17932
upperback 4.50399 9.67467 -11.2283
thorax -2.26676 5.44819 -18.956
lowerneck -4.18011 7.20453 13.4544
upperneck -17.068 10.0939 -4.51885
head -3.61857 4.96617 -3.7232
rclavicle 1.84472e-013 -8.07066e-014
rhumerus 89.0039 -27.269 -23.5687
rradius 72.8129
rwrist -26.6842
rhand -20.3394 -370.771
rfingers 7.12502
rthumb 6.01215 -40.6659
lclavicle 1.84472e-013 -8.07066e-014
lhumerus 25.0445 18.5646 43.9538
lradius 18.792
lwrist 21.3119
lhand -41.4316 696.843
lfingers 7.12502
lthumb -14.3475 366.327
rfemur -27.019 -56.2335 24.6019
rtibia 84.5454
rfoot 35.5401 17.5626
rtoes 33.31
lfemur 257.493 8.54701 337.836
ltibia 106.31
lfoot -2.57225 -7.12062
ltoes 0.615198
2083
root -10.9784 10.7011 1.81432 -115.408 21.4745 245.073
lowerback 18.9343 5.8103 7.03766
upperback 4.40649 9.5456 -10.9605
thorax -2.4655 5.33463 -18.5013
lowerneck -4.62709 6.51734 13.5757
upperneck -16.6582 9.24817 -3.70628
head -3.54348 4.5305 -3.47451
rclavicle 1.43125e-013 -1.92821e-014
rhumerus 89.7812 -24.9028 -22.139
rradius 74.6229
rwrist -26.396
rhand -19.4465 -369.414
rfingers 7.12502
rthumb 6.87412 -39.2821
lclavicle 1.43125e-013 -1.92821e-014
lhumerus 27.3614 18.532 45.1638
lradius 18.1355
lwrist 19.4597
lhand -40.8284 696.131
lfingers 7.12502
lthumb -13.7663 365.655
rfemur -25.8732 -56.1679 26.2044
rtibia 84.1254
rfoot 36.5845 17.6614
rtoes 33.4675
lfemur 257.983 8.28676 335.548
ltibia 102.189
lfoot -2.57766 -6.278
ltoes 2.83008
2084
root -10.8364 10.8739 1.73274 -116.318 18.6311 243.267
lowerback 18.9179 5.732 7.04462
upperback 4.35222 9.42943 -10.7036
thorax -2.61288 5.24216 -18.1661
lowerneck -5.17663 5.78262 13.6876
upperneck -16.2263 8.31693 -2.91072
head -3.44507 4.06014 -3.22616
rclavicle -6.99722e-014 -5.11871e-014
rhumerus 90.3438 -22.4094 -20.6575
rradius 76.1545
rwrist -25.6351
rhand -18.4083 -368.014
rfingers 7.12502
rthumb 7.87628 -37.8476
lclavicle -6.99722e-014 -5.11871e-014
lhumerus 29.5252 17.8453 46.1483
lradius 17.8418
lwrist 18.265
lhand -40.2182 695.589
lfingers 7.12502
lthumb -13.1781 365.153
rfemur -24.9654 -56.0668 27.8799
rtibia 84.0516
rfoot 36.4715 17.3254
rtoes 32.9094
lfemur 258.68 8.0137 333.287
ltibia 97.9599
lfoot -2.4163 -5.64584
ltoes 4.4832
2085
root -10.7007 11.04 1.64134 -117.148 15.7908 241.432
lowerback 18.9842 5.6348 7.15979
upperback 4.30778 9.32013 -10.4962
thorax -2.7596 5.16035 -17.9797
lowerneck -5.78718 5.01133 13.7724
upperneck -15.7576 7.32233 -2.09656
head -3.3253 3.56574 -2.96667
rclavicle 4.13472e-014 -3.94091e-014
rhumerus 90.6801 -19.7551 -19.1984
rradius 77.4304
rwrist -24.4438
rhand -17.266 -366.72
rfingers 7.12502
rthumb 8.97868 -36.509
lclavicle 4.13472e-014 -3.94091e-014
lhumerus 31.754 16.7919 47.0554
lradius 17.5379
lwrist 17.3459
lhand -39.6099 695.022
lfingers 7.12502
lthumb -12.5917 364.623
rfemur -24.3567 -55.9185 29.5494
rtibia 84.3696
rfoot 35.1945 16.6916
rtoes 31.5414
lfemur 259.559 7.73168 331.005
ltibia 93.6717
lfoot -2.17165 -5.28824
ltoes 5.00541
2086
root -10.5702 11.1957 1.54202 -117.873 13.0311 239.593
lowerback 19.0534 5.54565 7.27595
upperback 4.29385 9.23087 -10.3132
thorax -2.8611 5.09811 -17.8247
lowerneck -6.35659 4.21756 13.7255
upperneck -15.0689 6.32938 -1.11011
head -3.48353 3.06849 -2.84792
rclavicle 4.45278e-014 -4.49253e-014
rhumerus 90.8732 -16.9476 -17.7778
rradius 78.4793
rwrist -22.885
rhand -16.1175 -365.604
rfingers 7.12502
rthumb 10.0868 -35.3423
lclavicle 4.45278e-014 -4.49253e-014
lhumerus 33.9647 15.4726 47.9025
lradius 17.229
lwrist 16.6689
lhand -39.0385 694.384
lfingers 7.12502
lthumb -12.0407 364.018
rfemur -24.0427 -55.6563 31.1082
rtibia 85.0795
rfoot 33.1597 15.7822
rtoes 29.9826
lfemur 260.634 7.46415 328.692
ltibia 89.3109
lfoot -1.84106 -5.27883
ltoes 4.9117
